<mxfile host="app.diagrams.net" agent="Mozilla/5.0 (Windows NT 10.0; Win64; x64) AppleWebKit/537.36 (KHTML, like Gecko) Chrome/137.0.0.0 Safari/537.36" version="27.1.1">
  <diagram name="Страница — 1" id="p55odF4Jwjyj1lfkvI0V">
    <mxGraphModel grid="1" page="0" gridSize="10" guides="1" tooltips="1" connect="1" arrows="1" fold="1" pageScale="1" pageWidth="827" pageHeight="1169" background="#9276C7" math="0" shadow="0">
      <root>
        <mxCell id="0" />
        <mxCell id="1" parent="0" />
        <mxCell id="g8l_0LpcsB62kwAi1A_3-2" value="" style="rounded=0;whiteSpace=wrap;html=1;fillColor=none;strokeColor=light-dark(#000000,#000000);strokeWidth=3;" vertex="1" parent="1">
          <mxGeometry x="-280" y="-400" width="1920" height="1080" as="geometry" />
        </mxCell>
        <mxCell id="g8l_0LpcsB62kwAi1A_3-12" value="jump length = 320&#xa;jump height = 158,5" style="text;whiteSpace=wrap;" vertex="1" parent="1">
          <mxGeometry x="-480" y="120" width="120" height="40" as="geometry" />
        </mxCell>
        <mxCell id="g8l_0LpcsB62kwAi1A_3-14" value="sizes:&#xa;player = 50*85&#xa;standart platform = 240*30&#xa;standart door = 30*110&#xa;button = 50*10&#xa;lever = 80*10&#xa;object for moving = 80*80&#xa;object for gathering = 40*40" style="text;whiteSpace=wrap;" vertex="1" parent="1">
          <mxGeometry x="-480" y="180" width="160" height="130" as="geometry" />
        </mxCell>
        <mxCell id="g8l_0LpcsB62kwAi1A_3-15" style="edgeStyle=none;curved=1;rounded=0;orthogonalLoop=1;jettySize=auto;html=1;exitX=1;exitY=0.5;exitDx=0;exitDy=0;fontSize=12;startSize=8;endSize=8;" edge="1" parent="1" source="g8l_0LpcsB62kwAi1A_3-14" target="g8l_0LpcsB62kwAi1A_3-14">
          <mxGeometry relative="1" as="geometry" />
        </mxCell>
        <mxCell id="g8l_0LpcsB62kwAi1A_3-17" value="button" style="shape=trapezoid;perimeter=trapezoidPerimeter;whiteSpace=wrap;html=1;fixedSize=1;size=10;fillColor=light-dark(#FFFFFF,#000066);" vertex="1" parent="1">
          <mxGeometry x="-250" y="180" width="50" height="10" as="geometry" />
        </mxCell>
        <mxCell id="g8l_0LpcsB62kwAi1A_3-33" value="" style="rounded=0;whiteSpace=wrap;html=1;fillColor=none;container=1;movable=0;resizable=0;rotatable=0;deletable=0;editable=0;locked=1;connectable=0;" vertex="1" parent="1">
          <mxGeometry x="-280" y="521.5" width="320" height="158.5" as="geometry" />
        </mxCell>
        <mxCell id="g8l_0LpcsB62kwAi1A_3-34" value="" style="endArrow=none;html=1;rounded=0;fontSize=12;startSize=8;endSize=8;curved=1;exitX=0;exitY=1;exitDx=0;exitDy=0;entryX=1;entryY=1;entryDx=0;entryDy=0;" edge="1" parent="g8l_0LpcsB62kwAi1A_3-33" target="g8l_0LpcsB62kwAi1A_3-33">
          <mxGeometry width="50" height="50" relative="1" as="geometry">
            <mxPoint y="158.5" as="sourcePoint" />
            <mxPoint x="256" y="158.5" as="targetPoint" />
            <Array as="points">
              <mxPoint x="160" y="-151" />
            </Array>
          </mxGeometry>
        </mxCell>
        <mxCell id="g8l_0LpcsB62kwAi1A_3-104" value="" style="rounded=0;whiteSpace=wrap;html=1;fillColor=none;strokeColor=light-dark(#000000,#3333FF);" vertex="1" parent="g8l_0LpcsB62kwAi1A_3-33">
          <mxGeometry y="48.5" width="180" height="110" as="geometry" />
        </mxCell>
        <mxCell id="g8l_0LpcsB62kwAi1A_3-35" value="standart platform" style="rounded=0;whiteSpace=wrap;html=1;fillColor=none;fontColor=#ffffff;strokeColor=light-dark(#2D7600,#263C1D);strokeWidth=2;" vertex="1" parent="1">
          <mxGeometry x="-100" y="540" width="240" height="30" as="geometry" />
        </mxCell>
        <mxCell id="g8l_0LpcsB62kwAi1A_3-38" value="distances:&#xa;length between platforms = 300&#xa;height between platforms = 385.5&#xa;max length for jump = 160&#xa;max height for jump = 110" style="text;whiteSpace=wrap;" vertex="1" parent="1">
          <mxGeometry x="-480" y="330" width="200" height="130" as="geometry" />
        </mxCell>
        <mxCell id="g8l_0LpcsB62kwAi1A_3-40" value="standart platform + 80 px" style="rounded=0;whiteSpace=wrap;html=1;fillColor=none;fontColor=#ffffff;strokeColor=light-dark(#2D7600,#263C1D);strokeWidth=2;" vertex="1" parent="1">
          <mxGeometry x="880" y="190" width="320" height="30" as="geometry" />
        </mxCell>
        <mxCell id="g8l_0LpcsB62kwAi1A_3-43" value="platform" style="rounded=0;whiteSpace=wrap;html=1;fillColor=none;fontColor=#ffffff;strokeColor=light-dark(#2D7600,#263C1D);strokeWidth=2;" vertex="1" parent="1">
          <mxGeometry x="-280" y="190" width="180" height="30" as="geometry" />
        </mxCell>
        <mxCell id="g8l_0LpcsB62kwAi1A_3-49" style="edgeStyle=none;curved=1;rounded=0;orthogonalLoop=1;jettySize=auto;html=1;exitX=1;exitY=0.5;exitDx=0;exitDy=0;fontSize=12;startSize=8;endSize=8;" edge="1" parent="1" source="g8l_0LpcsB62kwAi1A_3-33" target="g8l_0LpcsB62kwAi1A_3-33">
          <mxGeometry relative="1" as="geometry" />
        </mxCell>
        <mxCell id="g8l_0LpcsB62kwAi1A_3-94" value="" style="rounded=0;whiteSpace=wrap;html=1;fillColor=none;strokeColor=light-dark(#000000,#3333FF);" vertex="1" parent="1">
          <mxGeometry x="880" y="290" width="180" height="110" as="geometry" />
        </mxCell>
        <mxCell id="g8l_0LpcsB62kwAi1A_3-95" value="platform" style="rounded=0;whiteSpace=wrap;html=1;fillColor=none;fontColor=#ffffff;strokeColor=light-dark(#2D7600,#263C1D);strokeWidth=2;" vertex="1" parent="1">
          <mxGeometry x="1200" y="400" width="440" height="30" as="geometry" />
        </mxCell>
        <mxCell id="g8l_0LpcsB62kwAi1A_3-136" value="platform" style="rounded=0;whiteSpace=wrap;html=1;fillColor=none;fontColor=#ffffff;strokeColor=light-dark(#2D7600,#263C1D);strokeWidth=2;" vertex="1" parent="1">
          <mxGeometry x="320" y="400" width="560" height="30" as="geometry" />
        </mxCell>
        <mxCell id="g8l_0LpcsB62kwAi1A_3-139" value="lever" style="shape=trapezoid;perimeter=trapezoidPerimeter;whiteSpace=wrap;html=1;fixedSize=1;size=10;fillColor=light-dark(#FFFFFF,#000066);" vertex="1" parent="1">
          <mxGeometry x="1520" y="390" width="80" height="10" as="geometry" />
        </mxCell>
        <mxCell id="g8l_0LpcsB62kwAi1A_3-140" value="button" style="shape=trapezoid;perimeter=trapezoidPerimeter;whiteSpace=wrap;html=1;fixedSize=1;size=10;fillColor=light-dark(#FFFFFF,#000066);" vertex="1" parent="1">
          <mxGeometry x="600" y="390" width="50" height="10" as="geometry" />
        </mxCell>
        <mxCell id="4RZl87nfe7ZOtQEmWIUF-7" value="" style="rounded=0;whiteSpace=wrap;html=1;fillColor=none;strokeColor=light-dark(#000000,#3333FF);" vertex="1" parent="1">
          <mxGeometry x="1060" y="290" width="180" height="110" as="geometry" />
        </mxCell>
        <mxCell id="4RZl87nfe7ZOtQEmWIUF-8" value="" style="rounded=0;whiteSpace=wrap;html=1;fillColor=none;strokeColor=light-dark(#000000,#3333FF);" vertex="1" parent="1">
          <mxGeometry x="140" y="430" width="180" height="110" as="geometry" />
        </mxCell>
        <mxCell id="4RZl87nfe7ZOtQEmWIUF-9" value="" style="curved=1;endArrow=classic;html=1;rounded=0;exitX=0.5;exitY=0;exitDx=0;exitDy=0;" edge="1" parent="1" source="g8l_0LpcsB62kwAi1A_3-139" target="g8l_0LpcsB62kwAi1A_3-40">
          <mxGeometry width="50" height="50" relative="1" as="geometry">
            <mxPoint x="1150" y="310" as="sourcePoint" />
            <mxPoint x="1200" y="260" as="targetPoint" />
            <Array as="points">
              <mxPoint x="1490" y="210" />
              <mxPoint x="1270" y="140" />
            </Array>
          </mxGeometry>
        </mxCell>
        <mxCell id="4RZl87nfe7ZOtQEmWIUF-10" value="platform" style="rounded=0;whiteSpace=wrap;html=1;fillColor=none;fontColor=#ffffff;strokeColor=light-dark(#2D7600,#263C1D);strokeWidth=2;" vertex="1" parent="1">
          <mxGeometry x="1510" y="260" width="130" height="30" as="geometry" />
        </mxCell>
        <mxCell id="4RZl87nfe7ZOtQEmWIUF-11" value="object for moving" style="whiteSpace=wrap;html=1;aspect=fixed;fillColor=none;strokeWidth=2;" vertex="1" parent="1">
          <mxGeometry x="1530" y="180" width="80" height="80" as="geometry" />
        </mxCell>
        <mxCell id="4RZl87nfe7ZOtQEmWIUF-12" value="&lt;font style=&quot;font-size: 7px;&quot;&gt;collision&lt;/font&gt;" style="rounded=0;whiteSpace=wrap;html=1;fillColor=none;strokeColor=light-dark(#000000,#66FFB3);" vertex="1" parent="1">
          <mxGeometry x="1610" y="250" width="30" height="10" as="geometry" />
        </mxCell>
        <mxCell id="4RZl87nfe7ZOtQEmWIUF-13" value="" style="curved=1;endArrow=classic;html=1;rounded=0;entryX=0.5;entryY=0;entryDx=0;entryDy=0;" edge="1" parent="1" source="4RZl87nfe7ZOtQEmWIUF-11" target="g8l_0LpcsB62kwAi1A_3-140">
          <mxGeometry width="50" height="50" relative="1" as="geometry">
            <mxPoint x="920" y="450" as="sourcePoint" />
            <mxPoint x="970" y="400" as="targetPoint" />
            <Array as="points">
              <mxPoint x="1150" y="250" />
              <mxPoint x="920" y="260" />
              <mxPoint x="730" y="290" />
            </Array>
          </mxGeometry>
        </mxCell>
        <mxCell id="4RZl87nfe7ZOtQEmWIUF-14" value="" style="rounded=0;whiteSpace=wrap;html=1;fillColor=none;strokeColor=light-dark(#000000,#3333FF);" vertex="1" parent="1">
          <mxGeometry x="700" y="80" width="180" height="110" as="geometry" />
        </mxCell>
        <mxCell id="4RZl87nfe7ZOtQEmWIUF-15" value="platform" style="rounded=0;whiteSpace=wrap;html=1;fillColor=none;fontColor=#ffffff;strokeColor=light-dark(#2D7600,#263C1D);strokeWidth=2;" vertex="1" parent="1">
          <mxGeometry x="440" y="50" width="1200" height="30" as="geometry" />
        </mxCell>
        <mxCell id="4RZl87nfe7ZOtQEmWIUF-17" value="" style="rounded=0;whiteSpace=wrap;html=1;fillColor=none;fontColor=#ffffff;strokeColor=light-dark(#2D7600,#990000);strokeWidth=2;" vertex="1" parent="1">
          <mxGeometry x="880" y="400" width="320" height="30" as="geometry" />
        </mxCell>
        <mxCell id="4RZl87nfe7ZOtQEmWIUF-19" value="" style="endArrow=classic;html=1;rounded=0;strokeColor=light-dark(#000000,#660000);" edge="1" parent="1" source="g8l_0LpcsB62kwAi1A_3-40" target="4RZl87nfe7ZOtQEmWIUF-17">
          <mxGeometry width="50" height="50" relative="1" as="geometry">
            <mxPoint x="980" y="350" as="sourcePoint" />
            <mxPoint x="1030" y="300" as="targetPoint" />
          </mxGeometry>
        </mxCell>
        <mxCell id="4RZl87nfe7ZOtQEmWIUF-20" value="platform" style="rounded=0;whiteSpace=wrap;html=1;fillColor=none;fontColor=#ffffff;strokeColor=light-dark(#2D7600,#263C1D);strokeWidth=2;" vertex="1" parent="1">
          <mxGeometry x="140" y="190" width="560" height="30" as="geometry" />
        </mxCell>
        <mxCell id="4RZl87nfe7ZOtQEmWIUF-21" value="&lt;font style=&quot;color: light-dark(rgb(0, 0, 0), rgb(0, 0, 0));&quot;&gt;st.&lt;/font&gt;&lt;div&gt;&lt;font style=&quot;color: light-dark(rgb(0, 0, 0), rgb(0, 0, 0));&quot;&gt;door&lt;/font&gt;&lt;/div&gt;" style="rounded=0;whiteSpace=wrap;html=1;fillColor=none;strokeColor=light-dark(#2D7600,#263C1D);strokeWidth=2;" vertex="1" parent="1">
          <mxGeometry x="670" y="80" width="30" height="110" as="geometry" />
        </mxCell>
        <mxCell id="4RZl87nfe7ZOtQEmWIUF-25" value="" style="endArrow=none;html=1;rounded=0;fontSize=12;startSize=8;endSize=8;curved=1;exitX=0;exitY=1;exitDx=0;exitDy=0;entryX=1;entryY=1;entryDx=0;entryDy=0;" edge="1" parent="1">
          <mxGeometry width="50" height="50" relative="1" as="geometry">
            <mxPoint x="560" y="189.5" as="sourcePoint" />
            <mxPoint x="880" y="190" as="targetPoint" />
            <Array as="points">
              <mxPoint x="720" y="-120" />
            </Array>
          </mxGeometry>
        </mxCell>
        <mxCell id="4RZl87nfe7ZOtQEmWIUF-26" value="" style="curved=1;endArrow=classic;html=1;rounded=0;exitX=0.5;exitY=0;exitDx=0;exitDy=0;" edge="1" parent="1" source="g8l_0LpcsB62kwAi1A_3-140" target="4RZl87nfe7ZOtQEmWIUF-21">
          <mxGeometry width="50" height="50" relative="1" as="geometry">
            <mxPoint x="720" y="160" as="sourcePoint" />
            <mxPoint x="770" y="110" as="targetPoint" />
            <Array as="points">
              <mxPoint x="625" y="300" />
              <mxPoint x="730" y="240" />
              <mxPoint x="770" y="160" />
              <mxPoint x="750" y="120" />
              <mxPoint x="720" y="110" />
            </Array>
          </mxGeometry>
        </mxCell>
        <mxCell id="4RZl87nfe7ZOtQEmWIUF-27" value="" style="rounded=0;whiteSpace=wrap;html=1;fillColor=none;strokeColor=light-dark(#2D7600,#990000);strokeWidth=2;" vertex="1" parent="1">
          <mxGeometry x="670" y="-60" width="30" height="110" as="geometry" />
        </mxCell>
        <mxCell id="4RZl87nfe7ZOtQEmWIUF-28" value="" style="endArrow=classic;html=1;rounded=0;strokeColor=light-dark(#2D7600,#990000);" edge="1" parent="1" source="4RZl87nfe7ZOtQEmWIUF-21" target="4RZl87nfe7ZOtQEmWIUF-27">
          <mxGeometry width="50" height="50" relative="1" as="geometry">
            <mxPoint x="670" y="80" as="sourcePoint" />
            <mxPoint x="720" y="30" as="targetPoint" />
          </mxGeometry>
        </mxCell>
        <mxCell id="4RZl87nfe7ZOtQEmWIUF-29" value="" style="rounded=0;whiteSpace=wrap;html=1;fillColor=none;strokeColor=light-dark(#000000,#3333FF);" vertex="1" parent="1">
          <mxGeometry x="260" y="80" width="180" height="110" as="geometry" />
        </mxCell>
        <mxCell id="4RZl87nfe7ZOtQEmWIUF-30" value="platform" style="rounded=0;whiteSpace=wrap;html=1;fillColor=none;fontColor=#ffffff;strokeColor=light-dark(#2D7600,#263C1D);strokeWidth=2;" vertex="1" parent="1">
          <mxGeometry x="440" y="-90" width="880" height="30" as="geometry" />
        </mxCell>
        <mxCell id="4RZl87nfe7ZOtQEmWIUF-32" value="" style="rounded=0;whiteSpace=wrap;html=1;fillColor=none;strokeColor=light-dark(#000000,#3333FF);" vertex="1" parent="1">
          <mxGeometry x="260" y="-60" width="180" height="110" as="geometry" />
        </mxCell>
        <mxCell id="4RZl87nfe7ZOtQEmWIUF-33" value="standart platform" style="rounded=0;whiteSpace=wrap;html=1;fillColor=none;fontColor=#ffffff;strokeColor=light-dark(#2D7600,#263C1D);strokeWidth=2;" vertex="1" parent="1">
          <mxGeometry x="-280" y="-90" width="240" height="30" as="geometry" />
        </mxCell>
        <mxCell id="4RZl87nfe7ZOtQEmWIUF-35" value="" style="curved=1;endArrow=classic;html=1;rounded=0;exitX=0.5;exitY=0;exitDx=0;exitDy=0;" edge="1" parent="1" source="g8l_0LpcsB62kwAi1A_3-17" target="4RZl87nfe7ZOtQEmWIUF-33">
          <mxGeometry width="50" height="50" relative="1" as="geometry">
            <mxPoint x="-70" y="70" as="sourcePoint" />
            <mxPoint x="-20" y="20" as="targetPoint" />
            <Array as="points">
              <mxPoint x="-160" y="50" />
            </Array>
          </mxGeometry>
        </mxCell>
        <mxCell id="4RZl87nfe7ZOtQEmWIUF-36" value="" style="rounded=0;whiteSpace=wrap;html=1;fillColor=none;fontColor=#ffffff;strokeColor=light-dark(#2D7600,#990000);strokeWidth=2;" vertex="1" parent="1">
          <mxGeometry x="20" y="-90" width="240" height="30" as="geometry" />
        </mxCell>
        <mxCell id="4RZl87nfe7ZOtQEmWIUF-37" value="" style="endArrow=classic;html=1;rounded=0;strokeColor=light-dark(#2D7600,#990000);" edge="1" parent="1" source="4RZl87nfe7ZOtQEmWIUF-33" target="4RZl87nfe7ZOtQEmWIUF-36">
          <mxGeometry width="50" height="50" relative="1" as="geometry">
            <mxPoint x="440" y="-40" as="sourcePoint" />
            <mxPoint x="490" y="-90" as="targetPoint" />
          </mxGeometry>
        </mxCell>
        <mxCell id="4RZl87nfe7ZOtQEmWIUF-38" value="" style="rounded=0;whiteSpace=wrap;html=1;fillColor=none;strokeColor=light-dark(#000000,#3333FF);" vertex="1" parent="1">
          <mxGeometry x="260" y="-200" width="180" height="110" as="geometry" />
        </mxCell>
        <mxCell id="4RZl87nfe7ZOtQEmWIUF-39" value="object for moving" style="whiteSpace=wrap;html=1;aspect=fixed;fillColor=none;strokeWidth=2;" vertex="1" parent="1">
          <mxGeometry x="-20" y="460" width="80" height="80" as="geometry" />
        </mxCell>
        <mxCell id="4RZl87nfe7ZOtQEmWIUF-41" value="" style="curved=1;endArrow=classic;html=1;rounded=0;exitX=0.5;exitY=0;exitDx=0;exitDy=0;" edge="1" parent="1" source="g8l_0LpcsB62kwAi1A_3-17" target="g8l_0LpcsB62kwAi1A_3-35">
          <mxGeometry width="50" height="50" relative="1" as="geometry">
            <mxPoint x="-100" y="520" as="sourcePoint" />
            <mxPoint x="-50" y="470" as="targetPoint" />
            <Array as="points">
              <mxPoint x="-50" y="520" />
              <mxPoint x="-120" y="300" />
              <mxPoint x="-130" y="380" />
              <mxPoint x="-100" y="470" />
            </Array>
          </mxGeometry>
        </mxCell>
        <mxCell id="4RZl87nfe7ZOtQEmWIUF-42" value="" style="rounded=0;whiteSpace=wrap;html=1;fillColor=none;fontColor=#ffffff;strokeColor=light-dark(#2D7600,#990000);strokeWidth=2;" vertex="1" parent="1">
          <mxGeometry x="-100" y="190" width="240" height="30" as="geometry" />
        </mxCell>
        <mxCell id="4RZl87nfe7ZOtQEmWIUF-44" value="&lt;font style=&quot;font-size: 5px;&quot;&gt;timer for effect of pressed button&lt;/font&gt;" style="rounded=0;whiteSpace=wrap;html=1;fillColor=none;strokeColor=light-dark(#000000,#66FFB3);" vertex="1" parent="1">
          <mxGeometry x="-205" y="180" width="90" height="10" as="geometry" />
        </mxCell>
        <mxCell id="4RZl87nfe7ZOtQEmWIUF-45" value="" style="endArrow=classic;html=1;rounded=0;strokeColor=light-dark(#2D7600,#990000);" edge="1" parent="1" source="g8l_0LpcsB62kwAi1A_3-35" target="4RZl87nfe7ZOtQEmWIUF-42">
          <mxGeometry width="50" height="50" relative="1" as="geometry">
            <mxPoint x="190" y="310" as="sourcePoint" />
            <mxPoint x="240" y="260" as="targetPoint" />
          </mxGeometry>
        </mxCell>
        <mxCell id="4RZl87nfe7ZOtQEmWIUF-47" value="exit from lvl" style="rounded=0;whiteSpace=wrap;html=1;fillColor=none;strokeColor=light-dark(#000000,#B3FF66);" vertex="1" parent="1">
          <mxGeometry x="800" y="-240" width="120" height="150" as="geometry" />
        </mxCell>
        <mxCell id="4RZl87nfe7ZOtQEmWIUF-48" value="player" style="rounded=0;whiteSpace=wrap;html=1;fillColor=none;strokeWidth=3;" vertex="1" parent="1">
          <mxGeometry x="730" y="-175" width="50" height="85" as="geometry" />
        </mxCell>
        <mxCell id="4RZl87nfe7ZOtQEmWIUF-49" value="start position" style="rounded=0;whiteSpace=wrap;html=1;fillColor=none;strokeColor=light-dark(#000000,#B3FF66);" vertex="1" parent="1">
          <mxGeometry x="760" y="530" width="120" height="150" as="geometry" />
        </mxCell>
        <mxCell id="4RZl87nfe7ZOtQEmWIUF-51" value="" style="shape=hexagon;perimeter=hexagonPerimeter2;whiteSpace=wrap;html=1;fixedSize=1;fillColor=none;gradientColor=none;strokeColor=light-dark(#000000,#EA6B66);" vertex="1" parent="1">
          <mxGeometry x="-240" y="-130" width="30" height="30" as="geometry" />
        </mxCell>
        <mxCell id="4RZl87nfe7ZOtQEmWIUF-52" value="" style="shape=hexagon;perimeter=hexagonPerimeter2;whiteSpace=wrap;html=1;fixedSize=1;fillColor=none;gradientColor=none;strokeColor=light-dark(#000000,#EA6B66);" vertex="1" parent="1">
          <mxGeometry x="1340" y="640" width="30" height="30" as="geometry" />
        </mxCell>
        <mxCell id="4RZl87nfe7ZOtQEmWIUF-53" value="" style="shape=hexagon;perimeter=hexagonPerimeter2;whiteSpace=wrap;html=1;fixedSize=1;fillColor=none;gradientColor=none;strokeColor=light-dark(#000000,#EA6B66);size=20;" vertex="1" parent="1">
          <mxGeometry x="1555" y="10" width="30" height="30" as="geometry" />
        </mxCell>
        <mxCell id="4RZl87nfe7ZOtQEmWIUF-55" value="" style="shape=hexagon;perimeter=hexagonPerimeter2;whiteSpace=wrap;html=1;fixedSize=1;fillColor=none;gradientColor=none;strokeColor=light-dark(#000000,#EA6B66);" vertex="1" parent="1">
          <mxGeometry x="470" y="360" width="30" height="30" as="geometry" />
        </mxCell>
      </root>
    </mxGraphModel>
  </diagram>
</mxfile>
